<svg xmlns="http://www.w3.org/2000/svg" xmlns:xlink="http://www.w3.org/1999/xlink" width="72" height="72" version="1.1" viewBox="0 0 72 72"><title>Group 3</title><desc>Created with Sketch.</desc><g id="Page-1" fill="none" fill-rule="evenodd" stroke="none" stroke-width="1"><g id="Desktop-Home-Copy-5" transform="translate(-684.000000, -50.000000)"><g id="Group-3" transform="translate(684.000000, 50.000000)"><g id="Page-1"><polygon id="Fill-1" fill="#FF4F58" points="25.466 19.4 48.866 19.4 48.866 12.4 25.466 12.4"/><polygon id="Fill-2" fill="#FF4F58" points="20.867 24.4 53.552 24.4 53.552 17.4 20.867 17.4"/><path id="Fill-3" fill="#FF4F58" d="M18,0 L18,6 L24,6 L29.9992,6 L36,6 L42,6 L47.9992,6 L54,6 L54,0 L18,0 Z M54,12 L60,12 L60,5.9992 L54,5.9992 L54,12 Z M11.9992,6 L11.9992,12 L6,12 L6,18 L0,18 L0,24 L0,30 L0,36 L0,42 L0,48 L0,54 L6,54 L6,48 L6,42 L6,36 L6,30 L6,24 L6,18 L11.9992,18 L11.9992,12 L18,12 L18,6 L11.9992,6 Z M60,18 L66,18 L66,12 L60,12 L60,18 Z M65.9992,18 L65.9992,24 L65.9992,30 L65.9992,36 L65.9992,42 L65.9992,48 L65.9992,54 L72,54 L72,18 L65.9992,18 Z M60,60 L66,60 L66,54 L60,54 L60,60 Z M6,60 L12,60 L12,54 L6,54 L6,60 Z M54,66 L60,66 L60,59.9992 L54,59.9992 L54,66 Z M11.9992,66 L18,66 L18,59.9992 L11.9992,59.9992 L11.9992,66 Z M47.9992,66 L42,66 L36,66 L29.9992,66 L24,66 L18,66 L18,72 L24,72 L29.9992,72 L36,72 L42,72 L47.9992,72 L54,72 L54,66 L47.9992,66 Z"/><polygon id="Fill-4" fill="#FF4F58" points="25.066 56 48.466 56 48.466 49 25.066 49"/><polygon id="Fill-5" fill="#FF4F58" points="20.467 51 53.152 51 53.152 44 20.467 44"/><polygon id="Fill-6" fill="#FF4F58" points="16.266 46.435 58.461 46.435 58.461 22.4 16.266 22.4"/><polygon id="Fill-7" fill="#F7F7F7" points="33.6 34.738 50.316 34.738 50.316 27.2 33.6 27.2"/><polygon id="Fill-8" fill="#F7F7F7" points="38.4 38.91 46.031 38.91 46.031 22.4 38.4 22.4"/></g></g></g></g></svg>