<svg xmlns="http://www.w3.org/2000/svg" xmlns:xlink="http://www.w3.org/1999/xlink" width="120" height="120" version="1.1" viewBox="0 0 120 120"><title>Group 5</title><desc>Created with Sketch.</desc><g id="Page-1" fill="none" fill-rule="evenodd" stroke="none" stroke-width="1"><g id="Desktop-Home-Copy-5" transform="translate(-821.000000, -266.000000)"><g id="Group-4" transform="translate(407.000000, 225.000000)"><g id="Group-5" transform="translate(414.000000, 41.000000)"><path id="Page-1" fill="#FFF" d="M30,0 L30,10 L40,10 L49.9986667,10 L60,10 L70,10 L79.9986667,10 L90,10 L90,0 L30,0 Z M90,20 L100,20 L100,10 L90,10 L90,20 Z M19.9986667,10 L19.9986667,20 L10,20 L10,30 L0,30 L0,40 L0,50 L0,60 L0,70 L0,80 L0,90 L10,90 L10,80 L10,70 L10,60 L10,50 L10,40 L10,30 L19.9986667,30 L19.9986667,20 L30,20 L30,10 L19.9986667,10 Z M100,30 L110,30 L110,20 L100,20 L100,30 Z M110,30 L110,40 L110,50 L110,60 L110,70 L110,80 L110,90 L120,90 L120,30 L110,30 Z M100,100 L110,100 L110,90 L100,90 L100,100 Z M10,100 L20,100 L20,90 L10,90 L10,100 Z M90,110 L100,110 L100,100 L90,100 L90,110 Z M20,110 L30,110 L30,100 L20,100 L20,110 Z M79.9986667,110 L70,110 L60,110 L49.9986667,110 L40,110 L30,110 L30,120 L40,120 L49.9986667,120 L60,120 L70,120 L79.9986667,120 L90,120 L90,110 L79.9986667,110 Z"/><g id="Page-1" fill="#F7F7F7" transform="translate(41.000000, 26.000000)"><polygon id="Fill-1" points="6.094 16.947 0 16.947 0 23.613 0 30.263 6.094 30.263 6.094 23.613"/><polygon id="Fill-2" points="25.297 30.263 18.89 30.263 12.467 30.263 6.094 30.263 6.094 36.316 12.467 36.316 18.89 36.316 25.297 36.316 31.688 36.316 31.688 30.263"/><polygon id="Fill-3" points="39 42.991 39 36.316 32.906 36.316 32.906 42.991 32.906 49.632 39 49.632"/><polygon id="Fill-4" points="0 49.632 6.094 49.632 6.094 43.579 0 43.579"/><polygon id="Fill-5" points="32.906 23 39 23 39 16.947 32.906 16.947"/><polygon id="Fill-6" points="18.89 16.947 25.297 16.947 31.688 16.947 31.688 10.298 25.297 10.298 25.297 3.632 18.89 3.632 12.467 3.632 12.467 10.298 6.094 10.298 6.094 16.947 12.467 16.947"/><polygon id="Fill-8" points="12.466 56.298 12.466 62.947 18.889 62.947 25.296 62.947 25.296 56.298 31.688 56.298 31.688 49.632 25.296 49.632 18.889 49.632 12.466 49.632 6.094 49.632 6.094 56.298"/><polygon id="Fill-9" points="14.625 69 23.156 69 23.156 0 14.625 0"/></g></g></g></g></g></svg>