<svg xmlns="http://www.w3.org/2000/svg" xmlns:xlink="http://www.w3.org/1999/xlink" width="120" height="120" version="1.1" viewBox="0 0 120 120"><title>Minion</title><desc>Created with Sketch.</desc><g id="Page-1" fill="none" fill-rule="evenodd" stroke="none" stroke-width="1"><g id="Desktop-Home-Copy-5" fill="#FFF" transform="translate(-500.000000, -271.000000)"><g id="Group-4" transform="translate(407.000000, 225.000000)"><g id="Minion" transform="translate(93.000000, 46.000000)"><path id="Page-1" d="M30,0 L30,10 L40,10 L49.9986667,10 L60,10 L70,10 L79.9986667,10 L90,10 L90,0 L30,0 Z M90,20 L100,20 L100,10 L90,10 L90,20 Z M19.9986667,10 L19.9986667,20 L10,20 L10,30 L0,30 L0,40 L0,50 L0,60 L0,70 L0,80 L0,90 L10,90 L10,80 L10,70 L10,60 L10,50 L10,40 L10,30 L19.9986667,30 L19.9986667,20 L30,20 L30,10 L19.9986667,10 Z M100,30 L110,30 L110,20 L100,20 L100,30 Z M110,30 L110,40 L110,50 L110,60 L110,70 L110,80 L110,90 L120,90 L120,30 L110,30 Z M100,100 L110,100 L110,90 L100,90 L100,100 Z M10,100 L20,100 L20,90 L10,90 L10,100 Z M90,110 L100,110 L100,100 L90,100 L90,110 Z M20,110 L30,110 L30,100 L20,100 L20,110 Z M79.9986667,110 L70,110 L60,110 L49.9986667,110 L40,110 L30,110 L30,120 L40,120 L49.9986667,120 L60,120 L70,120 L79.9986667,120 L90,120 L90,110 L79.9986667,110 Z"/><g id="Page-1-Copy" transform="translate(35.000000, 26.000000)"><polygon id="Fill-1" points="25.5 8.947 16.999 8.947 16.999 17.384 8.5 17.384 8.5 25.819 8.5 34.255 16.999 34.255 16.999 42.692 8.5 42.692 8.5 51.127 0 51.127 0 59.563 0 68 8.5 68 16.999 68 25.5 68 34 68 42.499 68 51 68 51 51.127 42.499 51.127 42.499 42.692 34 42.692 34 34.255 42.499 34.255 42.499 25.819 42.499 17.384 34 17.384 34 8.947"/><polygon id="Fill-2" points="8.947 29.526 42.947 29.526 42.947 0 8.947 0"/><polygon id="Fill-3" points="37.579 22.368 48.316 22.368 48.316 11.632 37.579 11.632"/><polygon id="Fill-4" points=".895 22.368 11.632 22.368 11.632 11.632 .895 11.632"/></g></g></g></g></g></svg>