<svg xmlns="http://www.w3.org/2000/svg" xmlns:xlink="http://www.w3.org/1999/xlink" width="102" height="137" version="1.1" viewBox="0 0 102 137"><title>Page 1</title><desc>Created with Sketch.</desc><g id="Page-1" fill="none" fill-rule="evenodd" stroke="none" stroke-width="1"><g id="Desktop-Home-Copy-6" fill="#FFF" transform="translate(-459.000000, -299.000000)"><g id="Group-4" transform="translate(410.000000, 225.000000)"><g id="Group" transform="translate(38.000000, 74.000000)"><g id="Page-1" transform="translate(11.000000, 0.000000)"><polygon id="Fill-1" points="51 18 34.001 18 34.001 35.002 16.999 35.002 16.999 52 16.999 68.999 34.001 68.999 34.001 86.001 16.999 86.001 16.999 103.002 0 103.002 0 119.998 0 137 16.999 137 34.001 137 51 137 68.002 137 84.998 137 102 137 102 103.002 84.998 103.002 84.998 86.001 68.002 86.001 68.002 68.999 84.998 68.999 84.998 52 84.998 35.002 68.002 35.002 68.002 18"/><polygon id="Fill-2" points="17 59 85 59 85 0 17 0"/><polygon id="Fill-3" points="75 45 96 45 96 23 75 23"/><polygon id="Fill-4" points="5 45 26 45 26 23 5 23"/></g></g></g></g></g></svg>